<?xml version="1.0" encoding="UTF-8" standalone="no"?>
<!-- Created with Inkscape (http://www.inkscape.org/) -->

<svg
   width="250mm"
   height="300mm"
   viewBox="0 0 250 300"
   version="1.1"
   id="svg1"
   inkscape:version="1.3.2 (091e20e, 2023-11-25, custom)"
   sodipodi:docname="vjezba2lucija.svg"
   xmlns:inkscape="http://www.inkscape.org/namespaces/inkscape"
   xmlns:sodipodi="http://sodipodi.sourceforge.net/DTD/sodipodi-0.dtd"
   xmlns="http://www.w3.org/2000/svg"
   xmlns:svg="http://www.w3.org/2000/svg">
  <sodipodi:namedview
     id="namedview1"
     pagecolor="#ffffff"
     bordercolor="#000000"
     borderopacity="0.25"
     inkscape:showpageshadow="2"
     inkscape:pageopacity="0.0"
     inkscape:pagecheckerboard="0"
     inkscape:deskcolor="#d1d1d1"
     inkscape:document-units="mm"
     showgrid="true"
     inkscape:zoom="1.5162318"
     inkscape:cx="428.03482"
     inkscape:cy="756.8104"
     inkscape:window-width="1920"
     inkscape:window-height="1009"
     inkscape:window-x="-8"
     inkscape:window-y="-8"
     inkscape:window-maximized="1"
     inkscape:current-layer="layer1"
     showguides="false">
    <inkscape:grid
       id="grid1"
       units="mm"
       originx="0"
       originy="0"
       spacingx="0.99999999"
       spacingy="0.99999999"
       empcolor="#0099e5"
       empopacity="0.30196078"
       color="#0099e5"
       opacity="0.14901961"
       empspacing="10"
       enabled="true"
       visible="true" />
  </sodipodi:namedview>
  <defs
     id="defs1">
    <clipPath
       clipPathUnits="userSpaceOnUse"
       id="clipPath1">
      <path
         d="m 21.904999,60.93569 h 22.224929 l -1.05833,61.80647 46.14319,0.42333 0.211664,14.18163 -68.368117,-0.21167 z m 109.748881,49.21235 q 0.74083,-0.21167 2.11666,-0.52917 1.37583,-0.42333 5.07999,-0.95249 3.80999,-0.52917 6.98498,-0.42334 3.17499,0.10584 6.66747,1.5875 3.59833,1.37583 5.50332,4.12748 2.85749,4.76249 1.37583,8.67831 -1.37583,3.80999 -4.02165,6.56165 -2.64583,2.75165 -3.38666,2.43415 -0.10583,0 -5.50332,0.74084 -5.29165,0.635 -10.15996,0.3175 -4.76249,-0.3175 -4.65666,-2.75166 0.3175,-8.25498 0,-19.79077 z m 0.3175,-42.227371 q 0.635,-0.105833 1.69333,-0.3175 1.05833,-0.3175 3.80999,-0.529164 2.75166,-0.211667 5.07998,0 2.32833,0.211664 4.65665,1.481661 2.43416,1.164164 3.38666,3.386656 1.05833,2.434159 1.16416,4.55082 0.21167,2.010826 -0.42333,3.49249 -0.635,1.375828 -1.58749,2.539992 -0.9525,1.164161 -2.2225,1.904992 -1.16416,0.635 -2.22249,1.058331 -0.9525,0.423333 -1.58749,0.634997 l -0.635,0.3175 q -11.5358,2.434159 -11.64164,-0.211667 -0.42333,-9.736635 0.52917,-18.309108 z m -18.30911,-8.995807 -0.74083,78.633918 q 33.6549,2.96333 49.63568,-0.42333 3.38666,-3.38665 4.65665,-4.86832 1.27,-1.48166 2.85749,-5.29165 1.69333,-3.80999 1.48166,-8.14914 0.42334,-8.9958 -10.37163,-15.98078 -1.79916,-0.84667 -3.59832,-1.37583 -1.79916,-0.52916 -4.12749,-0.74083 -2.22249,-0.3175 -3.28082,-0.42333 -1.05833,-0.10583 -4.02166,-0.21167 -2.96332,-0.211665 -3.49248,-0.211665 0.84666,-0.529164 3.59832,-2.116659 2.85749,-1.587497 4.12748,-2.328328 1.27,-0.846664 3.38666,-2.328325 2.11666,-1.587495 3.59832,-3.280823 1.5875,-1.799161 2.96333,-3.91582 2.64582,-4.55082 3.06915,-7.937476 0.52917,-3.386656 0,-5.185818 -0.21166,-0.634997 -0.52916,-2.010825 -0.21167,-1.375831 -0.52917,-2.222495 -0.21166,-0.952497 -0.95249,-2.328325 -0.635,-1.481664 -2.01083,-3.174992 -1.37583,-1.693328 -3.49249,-3.809987 -18.73244,-7.725809 -42.22737,-0.3175 z"
         id="path3"
         style="font-size:105.833px;font-family:LucijaBago;-inkscape-font-specification:LucijaBago;text-align:center;text-anchor:middle;white-space:pre;inline-size:173.101;display:inline;fill:none;stroke:#808080;stroke-width:2.11667"
         aria-label="LB"
         inkscape:label="LB" />
    </clipPath>
    <clipPath
       clipPathUnits="userSpaceOnUse"
       id="clipPath3">
      <path
         d="m 21.904999,60.93569 h 22.224929 l -1.05833,61.80647 46.14319,0.42333 0.211664,14.18163 -68.368117,-0.21167 z m 109.748881,49.21235 q 0.74083,-0.21167 2.11666,-0.52917 1.37583,-0.42333 5.07999,-0.95249 3.80999,-0.52917 6.98498,-0.42334 3.17499,0.10584 6.66747,1.5875 3.59833,1.37583 5.50332,4.12748 2.85749,4.76249 1.37583,8.67831 -1.37583,3.80999 -4.02165,6.56165 -2.64583,2.75165 -3.38666,2.43415 -0.10583,0 -5.50332,0.74084 -5.29165,0.635 -10.15996,0.3175 -4.76249,-0.3175 -4.65666,-2.75166 0.3175,-8.25498 0,-19.79077 z m 0.3175,-42.227371 q 0.635,-0.105833 1.69333,-0.3175 1.05833,-0.3175 3.80999,-0.529164 2.75166,-0.211667 5.07998,0 2.32833,0.211664 4.65665,1.481661 2.43416,1.164164 3.38666,3.386656 1.05833,2.434159 1.16416,4.55082 0.21167,2.010826 -0.42333,3.49249 -0.635,1.375828 -1.58749,2.539992 -0.9525,1.164161 -2.2225,1.904992 -1.16416,0.635 -2.22249,1.058331 -0.9525,0.423333 -1.58749,0.634997 l -0.635,0.3175 q -11.5358,2.434159 -11.64164,-0.211667 -0.42333,-9.736635 0.52917,-18.309108 z m -18.30911,-8.995807 -0.74083,78.633918 q 33.6549,2.96333 49.63568,-0.42333 3.38666,-3.38665 4.65665,-4.86832 1.27,-1.48166 2.85749,-5.29165 1.69333,-3.80999 1.48166,-8.14914 0.42334,-8.9958 -10.37163,-15.98078 -1.79916,-0.84667 -3.59832,-1.37583 -1.79916,-0.52916 -4.12749,-0.74083 -2.22249,-0.3175 -3.28082,-0.42333 -1.05833,-0.10583 -4.02166,-0.21167 -2.96332,-0.211665 -3.49248,-0.211665 0.84666,-0.529164 3.59832,-2.116659 2.85749,-1.587497 4.12748,-2.328328 1.27,-0.846664 3.38666,-2.328325 2.11666,-1.587495 3.59832,-3.280823 1.5875,-1.799161 2.96333,-3.91582 2.64582,-4.55082 3.06915,-7.937476 0.52917,-3.386656 0,-5.185818 -0.21166,-0.634997 -0.52916,-2.010825 -0.21167,-1.375831 -0.52917,-2.222495 -0.21166,-0.952497 -0.95249,-2.328325 -0.635,-1.481664 -2.01083,-3.174992 -1.37583,-1.693328 -3.49249,-3.809987 -18.73244,-7.725809 -42.22737,-0.3175 z"
         id="path45"
         style="font-size:105.833px;font-family:LucijaBago;-inkscape-font-specification:LucijaBago;text-align:center;text-anchor:middle;white-space:pre;inline-size:173.101;display:inline;fill:none;stroke:#808080;stroke-width:2.11667"
         aria-label="LB"
         inkscape:label="LB" />
    </clipPath>
    <clipPath
       clipPathUnits="userSpaceOnUse"
       id="clipPath45">
      <path
         d="m 21.904999,60.93569 h 22.224929 l -1.05833,61.80647 46.14319,0.42333 0.211664,14.18163 -68.368117,-0.21167 z m 109.748881,49.21235 q 0.74083,-0.21167 2.11666,-0.52917 1.37583,-0.42333 5.07999,-0.95249 3.80999,-0.52917 6.98498,-0.42334 3.17499,0.10584 6.66747,1.5875 3.59833,1.37583 5.50332,4.12748 2.85749,4.76249 1.37583,8.67831 -1.37583,3.80999 -4.02165,6.56165 -2.64583,2.75165 -3.38666,2.43415 -0.10583,0 -5.50332,0.74084 -5.29165,0.635 -10.15996,0.3175 -4.76249,-0.3175 -4.65666,-2.75166 0.3175,-8.25498 0,-19.79077 z m 0.3175,-42.227371 q 0.635,-0.105833 1.69333,-0.3175 1.05833,-0.3175 3.80999,-0.529164 2.75166,-0.211667 5.07998,0 2.32833,0.211664 4.65665,1.481661 2.43416,1.164164 3.38666,3.386656 1.05833,2.434159 1.16416,4.55082 0.21167,2.010826 -0.42333,3.49249 -0.635,1.375828 -1.58749,2.539992 -0.9525,1.164161 -2.2225,1.904992 -1.16416,0.635 -2.22249,1.058331 -0.9525,0.423333 -1.58749,0.634997 l -0.635,0.3175 q -11.5358,2.434159 -11.64164,-0.211667 -0.42333,-9.736635 0.52917,-18.309108 z m -18.30911,-8.995807 -0.74083,78.633918 q 33.6549,2.96333 49.63568,-0.42333 3.38666,-3.38665 4.65665,-4.86832 1.27,-1.48166 2.85749,-5.29165 1.69333,-3.80999 1.48166,-8.14914 0.42334,-8.9958 -10.37163,-15.98078 -1.79916,-0.84667 -3.59832,-1.37583 -1.79916,-0.52916 -4.12749,-0.74083 -2.22249,-0.3175 -3.28082,-0.42333 -1.05833,-0.10583 -4.02166,-0.21167 -2.96332,-0.211665 -3.49248,-0.211665 0.84666,-0.529164 3.59832,-2.116659 2.85749,-1.587497 4.12748,-2.328328 1.27,-0.846664 3.38666,-2.328325 2.11666,-1.587495 3.59832,-3.280823 1.5875,-1.799161 2.96333,-3.91582 2.64582,-4.55082 3.06915,-7.937476 0.52917,-3.386656 0,-5.185818 -0.21166,-0.634997 -0.52916,-2.010825 -0.21167,-1.375831 -0.52917,-2.222495 -0.21166,-0.952497 -0.95249,-2.328325 -0.635,-1.481664 -2.01083,-3.174992 -1.37583,-1.693328 -3.49249,-3.809987 -18.73244,-7.725809 -42.22737,-0.3175 z"
         id="path46"
         style="font-size:105.833px;font-family:LucijaBago;-inkscape-font-specification:LucijaBago;text-align:center;text-anchor:middle;white-space:pre;inline-size:173.101;display:inline;fill:none;stroke:#808080;stroke-width:2.11667"
         aria-label="LB"
         inkscape:label="LB" />
    </clipPath>
  </defs>
  <g
     inkscape:label="Sloj 1"
     inkscape:groupmode="layer"
     id="layer1">
    <path
       style="fill:none;stroke:#808080;stroke-width:2.11666667;stroke-dasharray:none;stroke-opacity:1;fill-opacity:0.0"
       d="M 50,170 C 0,130.03643 0,69.490598 50,30"
       id="path2"
       sodipodi:nodetypes="cc"
       inkscape:label="Krivulja 1"
       clip-path="url(#clipPath45)" />
    <path
       style="fill:none;stroke:#808080;stroke-width:2.11666667;stroke-dasharray:none;stroke-opacity:1;fill-opacity:0.0"
       d="M 190,170 C 240,120 90.000001,110 190,30"
       id="path4"
       sodipodi:nodetypes="cc"
       inkscape:label="Krivulja 2"
       clip-path="url(#clipPath3)" />
    <g
       id="g44"
       inkscape:label="Blend"
       clip-path="url(#clipPath1)">
      <path
         d="M 186.585 170 C 234.146 120.245 87.8049 109.012 186.585 30"
         style="fill:none;stroke:#808080;fill-opacity:0.0;stroke-opacity:1.0;stroke-width:2.11667px"
         id="path5" />
      <path
         d="M 183.171 170 C 228.293 120.49 85.6098 108.024 183.171 30"
         style="fill:none;stroke:#808080;fill-opacity:0.0;stroke-opacity:1.0;stroke-width:2.11667px"
         id="path6" />
      <path
         d="M 179.756 170 C 222.439 120.734 83.4146 107.036 179.756 30"
         style="fill:none;stroke:#808080;fill-opacity:0.0;stroke-opacity:1.0;stroke-width:2.11667px"
         id="path7" />
      <path
         d="M 176.341 170 C 216.585 120.979 81.2195 106.048 176.341 30"
         style="fill:none;stroke:#808080;fill-opacity:0.0;stroke-opacity:1.0;stroke-width:2.11667px"
         id="path8" />
      <path
         d="M 172.927 170 C 210.732 121.224 79.0244 105.06 172.927 30"
         style="fill:none;stroke:#808080;fill-opacity:0.0;stroke-opacity:1.0;stroke-width:2.11667px"
         id="path9" />
      <path
         d="M 169.512 170 C 204.878 121.469 76.8293 104.072 169.512 30"
         style="fill:none;stroke:#808080;fill-opacity:0.0;stroke-opacity:1.0;stroke-width:2.11667px"
         id="path10" />
      <path
         d="M 166.098 170 C 199.024 121.714 74.6341 103.084 166.098 30"
         style="fill:none;stroke:#808080;fill-opacity:0.0;stroke-opacity:1.0;stroke-width:2.11667px"
         id="path11" />
      <path
         d="M 162.683 170 C 193.171 121.958 72.439 102.096 162.683 30"
         style="fill:none;stroke:#808080;fill-opacity:0.0;stroke-opacity:1.0;stroke-width:2.11667px"
         id="path12" />
      <path
         d="M 159.268 170 C 187.317 122.203 70.2439 101.108 159.268 30"
         style="fill:none;stroke:#808080;fill-opacity:0.0;stroke-opacity:1.0;stroke-width:2.11667px"
         id="path13" />
      <path
         d="M 155.854 170 C 181.463 122.448 68.0488 100.12 155.854 30"
         style="fill:none;stroke:#808080;fill-opacity:0.0;stroke-opacity:1.0;stroke-width:2.11667px"
         id="path14" />
      <path
         d="M 152.439 170 C 175.61 122.693 65.8537 99.1316 152.439 30"
         style="fill:none;stroke:#808080;fill-opacity:0.0;stroke-opacity:1.0;stroke-width:2.11667px"
         id="path15" />
      <path
         d="M 149.024 170 C 169.756 122.937 63.6585 98.1436 149.024 30"
         style="fill:none;stroke:#808080;fill-opacity:0.0;stroke-opacity:1.0;stroke-width:2.11667px"
         id="path16" />
      <path
         d="M 145.61 170 C 163.902 123.182 61.4634 97.1556 145.61 30"
         style="fill:none;stroke:#808080;fill-opacity:0.0;stroke-opacity:1.0;stroke-width:2.11667px"
         id="path17" />
      <path
         d="M 142.195 170 C 158.049 123.427 59.2683 96.1675 142.195 30"
         style="fill:none;stroke:#808080;fill-opacity:0.0;stroke-opacity:1.0;stroke-width:2.11667px"
         id="path18" />
      <path
         d="M 138.78 170 C 152.195 123.672 57.0732 95.1795 138.78 30"
         style="fill:none;stroke:#808080;fill-opacity:0.0;stroke-opacity:1.0;stroke-width:2.11667px"
         id="path19" />
      <path
         d="M 135.366 170 C 146.341 123.917 54.878 94.1915 135.366 30"
         style="fill:none;stroke:#808080;fill-opacity:0.0;stroke-opacity:1.0;stroke-width:2.11667px"
         id="path20" />
      <path
         d="M 131.951 170 C 140.488 124.161 52.6829 93.2034 131.951 30"
         style="fill:none;stroke:#808080;fill-opacity:0.0;stroke-opacity:1.0;stroke-width:2.11667px"
         id="path21" />
      <path
         d="M 128.537 170 C 134.634 124.406 50.4878 92.2154 128.537 30"
         style="fill:none;stroke:#808080;fill-opacity:0.0;stroke-opacity:1.0;stroke-width:2.11667px"
         id="path22" />
      <path
         d="M 125.122 170 C 128.78 124.651 48.2927 91.2274 125.122 30"
         style="fill:none;stroke:#808080;fill-opacity:0.0;stroke-opacity:1.0;stroke-width:2.11667px"
         id="path23" />
      <path
         d="M 121.707 170 C 122.927 124.896 46.0976 90.2393 121.707 30"
         style="fill:none;stroke:#808080;fill-opacity:0.0;stroke-opacity:1.0;stroke-width:2.11667px"
         id="path24" />
      <path
         d="M 118.293 170 C 117.073 125.141 43.9024 89.2513 118.293 30"
         style="fill:none;stroke:#808080;fill-opacity:0.0;stroke-opacity:1.0;stroke-width:2.11667px"
         id="path25" />
      <path
         d="M 114.878 170 C 111.22 125.385 41.7073 88.2632 114.878 30"
         style="fill:none;stroke:#808080;fill-opacity:0.0;stroke-opacity:1.0;stroke-width:2.11667px"
         id="path26" />
      <path
         d="M 111.463 170 C 105.366 125.63 39.5122 87.2752 111.463 30"
         style="fill:none;stroke:#808080;fill-opacity:0.0;stroke-opacity:1.0;stroke-width:2.11667px"
         id="path27" />
      <path
         d="M 108.049 170 C 99.5122 125.875 37.3171 86.2872 108.049 30"
         style="fill:none;stroke:#808080;fill-opacity:0.0;stroke-opacity:1.0;stroke-width:2.11667px"
         id="path28" />
      <path
         d="M 104.634 170 C 93.6585 126.12 35.122 85.2991 104.634 30"
         style="fill:none;stroke:#808080;fill-opacity:0.0;stroke-opacity:1.0;stroke-width:2.11667px"
         id="path29" />
      <path
         d="M 101.22 170 C 87.8049 126.365 32.9268 84.3111 101.22 30"
         style="fill:none;stroke:#808080;fill-opacity:0.0;stroke-opacity:1.0;stroke-width:2.11667px"
         id="path30" />
      <path
         d="M 97.8049 170 C 81.9512 126.609 30.7317 83.3231 97.8049 30"
         style="fill:none;stroke:#808080;fill-opacity:0.0;stroke-opacity:1.0;stroke-width:2.11667px"
         id="path31" />
      <path
         d="M 94.3902 170 C 76.0976 126.854 28.5366 82.335 94.3902 30"
         style="fill:none;stroke:#808080;fill-opacity:0.0;stroke-opacity:1.0;stroke-width:2.11667px"
         id="path32" />
      <path
         d="M 90.9756 170 C 70.2439 127.099 26.3415 81.347 90.9756 30"
         style="fill:none;stroke:#808080;fill-opacity:0.0;stroke-opacity:1.0;stroke-width:2.11667px"
         id="path33" />
      <path
         d="M 87.561 170 C 64.3902 127.344 24.1463 80.359 87.561 30"
         style="fill:none;stroke:#808080;fill-opacity:0.0;stroke-opacity:1.0;stroke-width:2.11667px"
         id="path34" />
      <path
         d="M 84.1463 170 C 58.5366 127.589 21.9512 79.3709 84.1463 30"
         style="fill:none;stroke:#808080;fill-opacity:0.0;stroke-opacity:1.0;stroke-width:2.11667px"
         id="path35" />
      <path
         d="M 80.7317 170 C 52.6829 127.833 19.7561 78.3829 80.7317 30"
         style="fill:none;stroke:#808080;fill-opacity:0.0;stroke-opacity:1.0;stroke-width:2.11667px"
         id="path36" />
      <path
         d="M 77.3171 170 C 46.8293 128.078 17.561 77.3949 77.3171 30"
         style="fill:none;stroke:#808080;fill-opacity:0.0;stroke-opacity:1.0;stroke-width:2.11667px"
         id="path37" />
      <path
         d="M 73.9024 170 C 40.9756 128.323 15.3659 76.4068 73.9024 30"
         style="fill:none;stroke:#808080;fill-opacity:0.0;stroke-opacity:1.0;stroke-width:2.11667px"
         id="path38" />
      <path
         d="M 70.4878 170 C 35.122 128.568 13.1707 75.4188 70.4878 30"
         style="fill:none;stroke:#808080;fill-opacity:0.0;stroke-opacity:1.0;stroke-width:2.11667px"
         id="path39" />
      <path
         d="M 67.0732 170 C 29.2683 128.812 10.9756 74.4308 67.0732 30"
         style="fill:none;stroke:#808080;fill-opacity:0.0;stroke-opacity:1.0;stroke-width:2.11667px"
         id="path40" />
      <path
         d="M 63.6585 170 C 23.4146 129.057 8.78049 73.4427 63.6585 30"
         style="fill:none;stroke:#808080;fill-opacity:0.0;stroke-opacity:1.0;stroke-width:2.11667px"
         id="path41" />
      <path
         d="M 60.2439 170 C 17.561 129.302 6.58537 72.4547 60.2439 30"
         style="fill:none;stroke:#808080;fill-opacity:0.0;stroke-opacity:1.0;stroke-width:2.11667px"
         id="path42" />
      <path
         d="M 56.8293 170 C 11.7073 129.547 4.39024 71.4667 56.8293 30"
         style="fill:none;stroke:#808080;fill-opacity:0.0;stroke-opacity:1.0;stroke-width:2.11667px"
         id="path43" />
      <path
         d="M 53.4146 170 C 5.85366 129.792 2.19512 70.4786 53.4146 30"
         style="fill:none;stroke:#808080;fill-opacity:0.0;stroke-opacity:1.0;stroke-width:2.11667px"
         id="path44" />
    </g>
    <path
       d="m -11.254209,14.30256 h 22.22493 L 9.9123908,76.109033 56.055579,76.532365 56.267245,90.713987 -12.100873,90.502321 Z M 98.494673,63.514906 q 0.740831,-0.211666 2.116657,-0.529165 1.37583,-0.423332 5.07999,-0.952497 3.80999,-0.529165 6.98498,-0.423332 3.17499,0.105833 6.66747,1.587495 3.59833,1.375829 5.50332,4.127487 2.85749,4.762485 1.37583,8.678306 -1.37583,3.809988 -4.02165,6.561646 -2.64583,2.751658 -3.38666,2.434159 -0.10583,0 -5.50332,0.740831 -5.29165,0.634998 -10.15996,0.317499 -4.76249,-0.317499 -4.656657,-2.751658 0.317499,-8.254974 0,-19.790771 z m 0.317499,-42.227368 q 0.634998,-0.105833 1.693328,-0.317499 1.05833,-0.317499 3.80999,-0.529165 2.75166,-0.211666 5.07998,0 2.32833,0.211666 4.65665,1.481662 2.43416,1.164164 3.38666,3.386657 1.05833,2.434159 1.16416,4.550819 0.21167,2.010827 -0.42333,3.492489 -0.635,1.375829 -1.58749,2.539992 -0.9525,1.164163 -2.2225,1.904994 -1.16416,0.634998 -2.22249,1.05833 -0.9525,0.423332 -1.58749,0.634998 l -0.635,0.317499 q -11.5358,2.434159 -11.641633,-0.211666 -0.423332,-9.736636 0.529165,-18.30911 z m -18.309109,-8.995805 -0.740831,78.63392 q 33.654898,2.963324 49.635678,-0.423332 3.38666,-3.386656 4.65665,-4.868318 1.27,-1.481662 2.85749,-5.29165 1.69333,-3.809988 1.48166,-8.149141 0.42334,-8.995805 -10.37163,-15.980783 -1.79916,-0.846664 -3.59832,-1.375829 -1.79916,-0.529165 -4.12749,-0.740831 -2.22249,-0.317499 -3.28082,-0.423332 -1.05833,-0.105833 -4.02166,-0.211666 -2.96332,-0.211666 -3.49248,-0.211666 0.84666,-0.529165 3.59832,-2.11666 2.85749,-1.587495 4.12748,-2.328326 1.27,-0.846664 3.38666,-2.328326 2.11666,-1.587495 3.59832,-3.280823 1.5875,-1.799161 2.96333,-3.915821 2.64582,-4.550819 3.06915,-7.937475 0.52917,-3.386656 0,-5.185817 -0.21166,-0.634998 -0.52916,-2.010827 -0.21167,-1.375829 -0.52917,-2.222494 -0.21166,-0.952497 -0.95249,-2.328326 -0.635,-1.481662 -2.01083,-3.17499 -1.37583,-1.693328 -3.49249,-3.809988 -18.73244,-7.7258085 -42.227367,-0.317499 z"
       id="text1"
       style="font-size:105.833px;font-family:LucijaBago;-inkscape-font-specification:LucijaBago;text-align:center;text-anchor:middle;white-space:pre;inline-size:173.101;display:inline;fill:none;stroke:#b2b2b2;stroke-width:2.822575;stroke-opacity:1;stroke-dasharray:none"
       transform="translate(33.159208,46.633129)"
       aria-label="LB"
       inkscape:label="LB" />
  </g>
</svg>
