<?xml version="1.0" encoding="UTF-8" standalone="no"?>
<!-- Created with Inkscape (http://www.inkscape.org/) -->

<svg
   width="210mm"
   height="297mm"
   viewBox="0 0 210 297"
   version="1.1"
   id="svg1"
   sodipodi:docname="Lucija Bago vj4.2.svg"
   inkscape:version="1.4.2 (f4327f4, 2025-05-13)"
   xmlns:inkscape="http://www.inkscape.org/namespaces/inkscape"
   xmlns:sodipodi="http://sodipodi.sourceforge.net/DTD/sodipodi-0.dtd"
   xmlns:xlink="http://www.w3.org/1999/xlink"
   xmlns="http://www.w3.org/2000/svg"
   xmlns:svg="http://www.w3.org/2000/svg">
  <sodipodi:namedview
     id="namedview1"
     pagecolor="#ffffff"
     bordercolor="#000000"
     borderopacity="0.25"
     inkscape:showpageshadow="2"
     inkscape:pageopacity="0.0"
     inkscape:pagecheckerboard="0"
     inkscape:deskcolor="#d1d1d1"
     inkscape:document-units="mm"
     inkscape:zoom="1"
     inkscape:cx="397"
     inkscape:cy="565"
     inkscape:window-width="1920"
     inkscape:window-height="1111"
     inkscape:window-x="-9"
     inkscape:window-y="-9"
     inkscape:window-maximized="1"
     inkscape:current-layer="layer1" />
  <defs
     id="defs1">
    <linearGradient
       id="linearGradient367"
       inkscape:collect="always">
      <stop
         style="stop-color:#ffffff;stop-opacity:1;"
         offset="0"
         id="stop367" />
      <stop
         style="stop-color:#dddddd;stop-opacity:0;"
         offset="1"
         id="stop368" />
    </linearGradient>
    <linearGradient
       id="linearGradient345"
       inkscape:collect="always">
      <stop
         style="stop-color:#1b4c1c;stop-opacity:1;"
         offset="0"
         id="stop345" />
      <stop
         style="stop-color:#1b4c1c;stop-opacity:0;"
         offset="0.73130196"
         id="stop346" />
    </linearGradient>
    <linearGradient
       id="linearGradient343"
       inkscape:collect="always">
      <stop
         style="stop-color:#1b4c1c;stop-opacity:1;"
         offset="0"
         id="stop343" />
      <stop
         style="stop-color:#1b4c1c;stop-opacity:0;"
         offset="1"
         id="stop344" />
    </linearGradient>
    <linearGradient
       id="linearGradient339"
       inkscape:collect="always">
      <stop
         style="stop-color:#1b4c1c;stop-opacity:1;"
         offset="0.8033241"
         id="stop339" />
      <stop
         style="stop-color:#1b4c1c;stop-opacity:0;"
         offset="1"
         id="stop340" />
    </linearGradient>
    <linearGradient
       id="linearGradient337"
       inkscape:collect="always">
      <stop
         style="stop-color:#1b4c1c;stop-opacity:1;"
         offset="0.63434905"
         id="stop337" />
      <stop
         style="stop-color:#0d280e;stop-opacity:0;"
         offset="1"
         id="stop338" />
    </linearGradient>
    <linearGradient
       id="linearGradient334"
       inkscape:collect="always">
      <stop
         style="stop-color:#266a27;stop-opacity:1;"
         offset="0"
         id="stop335" />
      <stop
         style="stop-color:#266a27;stop-opacity:0;"
         offset="1"
         id="stop336" />
    </linearGradient>
    <linearGradient
       id="linearGradient332"
       inkscape:collect="always">
      <stop
         style="stop-color:#f4e7ff;stop-opacity:1;"
         offset="0.32132965"
         id="stop333" />
      <stop
         style="stop-color:#68526a;stop-opacity:0;"
         offset="1"
         id="stop334" />
    </linearGradient>
    <linearGradient
       id="linearGradient301"
       inkscape:collect="always">
      <stop
         style="stop-color:#1b4c1c;stop-opacity:1;"
         offset="0"
         id="stop301" />
      <stop
         style="stop-color:#1b4c1c;stop-opacity:0;"
         offset="1"
         id="stop302" />
    </linearGradient>
    <linearGradient
       id="linearGradient2"
       inkscape:collect="always">
      <stop
         style="stop-color:#3f8335;stop-opacity:1;"
         offset="0.58999974"
         id="stop2" />
      <stop
         style="stop-color:#449555;stop-opacity:0;"
         offset="1"
         id="stop3" />
    </linearGradient>
    <linearGradient
       inkscape:collect="always"
       xlink:href="#linearGradient2"
       id="linearGradient3"
       x1="132.96278"
       y1="191.52615"
       x2="45.4165"
       y2="13.445667"
       gradientUnits="userSpaceOnUse"
       gradientTransform="translate(4.9365123,37.230384)" />
    <radialGradient
       inkscape:collect="always"
       xlink:href="#linearGradient332"
       id="radialGradient334"
       cx="105.76719"
       cy="246.49765"
       fx="105.76719"
       fy="246.49765"
       r="38.496876"
       gradientTransform="matrix(2.0824742,0,0,0.29519607,-113.49009,180.3037)"
       gradientUnits="userSpaceOnUse" />
    <linearGradient
       inkscape:collect="always"
       xlink:href="#linearGradient334"
       id="linearGradient336"
       x1="111.80275"
       y1="167.92539"
       x2="182.41937"
       y2="167.92539"
       gradientUnits="userSpaceOnUse" />
    <linearGradient
       inkscape:collect="always"
       xlink:href="#linearGradient337"
       id="linearGradient338"
       x1="113.396"
       y1="169.12834"
       x2="168.53356"
       y2="169.12834"
       gradientUnits="userSpaceOnUse" />
    <linearGradient
       inkscape:collect="always"
       xlink:href="#linearGradient339"
       id="linearGradient340"
       x1="102.63946"
       y1="169.87482"
       x2="151.32441"
       y2="169.87482"
       gradientUnits="userSpaceOnUse" />
    <linearGradient
       inkscape:collect="always"
       xlink:href="#linearGradient343"
       id="linearGradient344"
       x1="40.960892"
       y1="168.22419"
       x2="109.15683"
       y2="168.22419"
       gradientUnits="userSpaceOnUse" />
    <linearGradient
       inkscape:collect="always"
       xlink:href="#linearGradient345"
       id="linearGradient346"
       x1="62.302436"
       y1="170.17361"
       x2="110.98739"
       y2="170.17361"
       gradientUnits="userSpaceOnUse" />
    <linearGradient
       inkscape:collect="always"
       xlink:href="#linearGradient301"
       id="linearGradient347"
       gradientUnits="userSpaceOnUse"
       gradientTransform="matrix(1.0019157,0,0,1.0019157,-203.88615,36.433041)"
       x1="20.616699"
       y1="129.97485"
       x2="176.58652"
       y2="129.97485" />
    <linearGradient
       inkscape:collect="always"
       xlink:href="#linearGradient334"
       id="linearGradient360"
       gradientUnits="userSpaceOnUse"
       x1="111.80275"
       y1="167.92539"
       x2="182.41937"
       y2="167.92539"
       gradientTransform="matrix(-0.99640726,0.08469102,0.08469102,0.99640726,194.30414,-9.7809783)" />
    <linearGradient
       inkscape:collect="always"
       xlink:href="#linearGradient367"
       id="linearGradient368"
       x1="52.331589"
       y1="111.52265"
       x2="82.549999"
       y2="111.52265"
       gradientUnits="userSpaceOnUse"
       gradientTransform="matrix(1.3735204,0.0904483,0.0904483,-1.3735204,-25.664435,374.17247)" />
    <filter
       inkscape:collect="always"
       style="color-interpolation-filters:sRGB"
       id="filter368"
       x="-0.1294286"
       y="-0.11523818"
       width="1.2588572"
       height="1.2304764">
      <feGaussianBlur
         inkscape:collect="always"
         stdDeviation="2.3928377"
         id="feGaussianBlur368" />
    </filter>
  </defs>
  <g
     inkscape:label="Layer 1"
     inkscape:groupmode="layer"
     id="layer1">
    <ellipse
       style="opacity:0.634375;fill:url(#linearGradient3);fill-opacity:1;stroke-width:0.2"
       id="path2"
       cx="103.83691"
       cy="166.60764"
       rx="77.984909"
       ry="77.985001"
       inkscape:label="krug 1" />
    <g
       id="g315"
       inkscape:label="pruge"
       transform="translate(-0.43288938,-2.6559233)">
      <path
         id="ellipse346"
         style="opacity:0.965625;fill:url(#linearGradient347);fill-opacity:1;stroke-width:0.200383"
         inkscape:label="krug 2"
         transform="matrix(-1,0,0,1,-0.56126601,2.525697)"
         d="m -105.09581,88.522247 a 78.1343,78.134399 0 0 1 16.788121,1.825212 c 0.01447,0.0074 0.02881,0.01452 0.04341,0.0217 0.177697,0.0825 0.3686,0.124363 0.561723,0.149345 0.07443,0.0084 0.149442,0.01311 0.224276,0.01602 a 78.1343,78.134399 0 0 1 0.136942,0.03204 c 0.08229,0.03159 0.166596,0.0573 0.252698,0.07958 0.07697,0.02145 0.155463,0.03595 0.233061,0.05478 0.01445,0.0035 -0.02888,-0.0061 -0.04341,-0.0093 0.10291,0.0451 0.214785,0.06121 0.321427,0.09353 0.07473,0.02986 0.200318,0.07122 0.306441,0.104386 0.228165,0.07787 0.46635,0.101652 0.705384,0.113172 a 78.1343,78.134399 0 0 1 58.604174,75.654294 78.1343,78.134399 0 0 1 -78.134247,78.13425 78.1343,78.134399 0 0 1 -78.13425,-78.13425 78.1343,78.134399 0 0 1 78.13425,-78.134763 z" />
      <path
         style="opacity:0.965625;fill:url(#linearGradient338);stroke-width:0.167774"
         d="m 113.396,92.813731 c 0,0 64.66464,27.479639 53.93637,80.939839 -10.09736,50.31625 -48.5533,71.63323 -48.5533,71.63323 7.2319,2.95534 79.18563,-111.56612 -5.38307,-152.573069 z"
         id="path5"
         sodipodi:nodetypes="cscc" />
      <path
         style="opacity:0.965625;fill:url(#linearGradient344);stroke-width:0.186454"
         d="m 109.15683,90.477701 c 0,0 -77.355906,29.559129 -67.292856,83.770609 9.47125,51.02336 52.296725,71.65895 52.296725,71.65895 -8.94546,3.1517 -89.9681706,-112.0101 14.996131,-155.429559 z"
         id="path32"
         sodipodi:nodetypes="cscc" />
      <path
         style="opacity:0.965625;fill:url(#linearGradient336);stroke-width:0.194883"
         d="m 111.80275,91.672871 c 0,0 74.2189,16.441829 70.47995,82.160879 -2.90497,51.06023 -53.47764,70.28196 -53.47764,70.28196 9.96394,3.09114 99.91266,-109.85772 -17.00231,-152.442839 z"
         id="path309"
         sodipodi:nodetypes="cscc" />
      <path
         style="opacity:0.965625;fill:url(#linearGradient340);stroke-width:0.167774"
         d="m 102.63946,92.514938 c 0,0 58.0912,25.985682 47.36293,79.445872 -10.09736,50.31625 -42.87624,75.21874 -42.87624,75.21874 7.2319,2.95534 80.08201,-113.65766 -4.48669,-154.664612 z"
         id="path311"
         sodipodi:nodetypes="cscc" />
      <path
         style="opacity:0.965625;fill:url(#linearGradient346);stroke-width:0.167774"
         d="m 110.98739,92.81373 c 0,0 -58.0912,25.98568 -47.36293,79.44587 10.097355,50.31625 42.87624,75.21874 42.87624,75.21874 -7.231905,2.95534 -80.08201,-113.65766 4.48669,-154.66461 z"
         id="path312"
         sodipodi:nodetypes="cscc" />
      <path
         style="opacity:1;fill:#1b4c1c;fill-opacity:1;stroke-width:0.2"
         d="m 105.77264,93.522123 5.97585,79.478867 -3.58551,39.44065 -1.79276,34.36116 -0.89638,-13.14688 -7.171023,-57.667 z"
         id="path313"
         sodipodi:nodetypes="ccccccc" />
      <path
         style="opacity:1;fill:#1b4c1c;fill-opacity:1;stroke-width:0.2"
         d="m 108.76056,97.107637 c 0,0 29.58049,49.300793 25.99498,77.686113 -3.23198,25.58649 -26.59256,69.31992 -26.59256,69.31992 3.35672,0 35.31726,-92.02817 0.59758,-147.006033 z"
         id="path314"
         sodipodi:nodetypes="cscc" />
      <path
         style="opacity:1;fill:#1b4c1c;fill-opacity:1;stroke-width:0.2"
         d="m 104.58016,96.510052 c 0,0 -29.580494,49.300798 -25.994979,77.686118 3.23198,25.58649 26.592569,69.31992 26.592569,69.31992 -3.35673,0 -35.317274,-92.02817 -0.59759,-147.006038 z"
         id="path315"
         sodipodi:nodetypes="cscc" />
      <ellipse
         style="opacity:1;fill:#e5c25c;fill-opacity:1;stroke-width:0.248276"
         id="path316"
         cx="104.64959"
         cy="81.271622"
         rx="5.7491846"
         ry="5.3782697" />
      <ellipse
         style="opacity:1;fill:#ffffff;fill-opacity:1;stroke-width:0.165517"
         id="ellipse316"
         cx="104.82474"
         cy="81.271629"
         rx="3.8327897"
         ry="3.5855131" />
      <path
         style="fill:#e5c25c;fill-opacity:1;stroke:none;stroke-width:0.264583px;stroke-linecap:butt;stroke-linejoin:miter;stroke-opacity:1"
         d="m 106.37866,86.408262 c 0,0 -3.54111,-0.402169 -4.0671,-0.264098 -4.225571,1.10921 -5.810159,0.792293 -5.862978,1.637407 -0.05282,0.845113 -1.32049,6.338349 -1.32049,6.338349 0,0 7.087748,1.327406 10.246998,1.426132 1.69023,0.05282 9.1378,-1.26767 9.1378,-1.26767 0,0 -1.21486,-6.813729 -1.74303,-7.077826 -0.5282,-0.264099 -6.49682,-1.162031 -6.49682,-1.162031 z"
         id="path327"
         sodipodi:nodetypes="csscscscc" />
      <path
         style="fill:none;fill-opacity:1;stroke:#595959;stroke-width:0.264583px;stroke-linecap:butt;stroke-linejoin:miter;stroke-opacity:1"
         d="m 95.795702,91.13762 3.472656,-1.537891 2.827732,1.802474 4.66328,-1.984375 3.50573,1.554427 3.15847,-1.802474"
         id="path330" />
      <ellipse
         style="opacity:0.6875;mix-blend-mode:normal;fill:url(#radialGradient334);stroke:none;stroke-width:0.416495;stroke-opacity:1"
         id="path331"
         cx="106.76736"
         cy="253.06886"
         rx="80.168747"
         ry="11.364127" />
      <path
         id="path360"
         style="opacity:0.965625;fill:url(#linearGradient360);stroke-width:0.194883"
         d="m 85.793571,93.38837 c -0.0284,0.0092 -0.05668,0.01842 -0.08372,0.02687 -0.312372,0.106604 -0.643687,0.111738 -0.969967,0.12299 -0.235637,0.0064 -0.471321,0.01062 -0.706934,0.01395 C 66.336365,101.02484 19.849327,125.91716 27.398685,178.86584 33.227416,219.74657 68.263023,237.31311 81.5406,242.56273 60.013959,228.57717 -8.9119403,141.19939 85.793571,93.38837 Z M 81.5406,242.56273 c 2.362414,1.53482 4.154044,2.1858 5.095813,1.8035 0,0 -1.929124,-0.55147 -5.095813,-1.8035 z" />
    </g>
    <path
       style="opacity:0.853125;fill:url(#linearGradient368);fill-opacity:1;stroke:none;stroke-width:0.364197px;stroke-linecap:butt;stroke-linejoin:miter;stroke-opacity:1;filter:url(#filter368)"
       d="m 96.562673,247.35162 c 0,0 -46.350766,-32.72384 -43.696116,-45.32354 2.654642,-12.59972 -3.304797,4.25698 0.845206,13.28993 4.149994,9.03296 42.850922,32.03361 42.850922,32.03361 z"
       id="path362"
       sodipodi:nodetypes="csscc" />
    <path
       style="fill:none;stroke:#000000;stroke-width:0.264583px;stroke-linecap:butt;stroke-linejoin:miter;stroke-opacity:1"
       d="M 105.56875,74.749992 Z"
       id="path368" />
    <path
       style="fill:#5e5e5e;stroke:none;stroke-width:0.264583px;stroke-linecap:butt;stroke-linejoin:miter;stroke-opacity:1;fill-opacity:1"
       d="m 104.90729,75.031112 c 0,0 0.76068,-1.07487 0.49609,-1.422135 -0.26458,-0.347266 -1.37252,-0.347266 -1.37252,-0.347266 0,0 -0.64492,1.653646 0.0661,1.736328 0.71107,0.08268 1.24024,-1.190625 1.10795,-1.488281 -0.1323,-0.297656 -0.33073,-73.47148452 -0.33073,-73.47148452 h -0.23151 l 0.0661,73.20690152 z"
       id="path369" />
  </g>
</svg>
